<svg width="100" height="34" viewBox="0 0 100 34" fill="none" xmlns="http://www.w3.org/2000/svg">
<mask id="mask0" mask-type="alpha" maskUnits="userSpaceOnUse" x="0" y="15" width="9" height="19">
<path fill-rule="evenodd" clip-rule="evenodd" d="M0 15.9717H8.65642V33.5713H0V15.9717Z" fill="white"/>
</mask>
<g mask="url(#mask0)">
<path fill-rule="evenodd" clip-rule="evenodd" d="M6.30061 15.9717H6.49755C7.69021 15.9723 8.65658 16.9396 8.65658 18.1325L8.65413 24.5423C8.65352 26.2093 8.52538 27.6224 8.27003 28.7796C8.01437 29.9383 7.5682 30.8821 6.9315 31.6117C6.29388 32.3405 5.41315 32.8671 4.29021 33.1909C3.74954 33.3463 3.13884 33.4674 2.45657 33.5536C1.15719 33.7176 -0.00030575 32.7227 6.05828e-08 31.4114C0.000611681 30.4007 0.700612 29.5072 1.69144 29.3062C1.89327 29.265 2.07706 29.216 2.2422 29.1601C2.78624 28.975 3.19755 28.6799 3.47615 28.2747C3.75413 27.8686 3.93333 27.3598 4.01498 26.746C4.09572 26.1325 4.1367 25.3974 4.13761 24.5405L4.13976 18.131C4.14067 16.9374 5.10795 15.9714 6.30061 15.9717Z" fill="#F89C1C"/>
</g>
<path fill-rule="evenodd" clip-rule="evenodd" d="M24.9449 22.9029C24.9449 23.5325 24.8415 24.1255 24.6351 24.6827C24.429 25.2402 24.1195 25.7243 23.7079 26.1356C23.2957 26.5475 22.7629 26.8744 22.1085 27.1154C21.4547 27.3579 20.6791 27.479 19.7834 27.4784L11.6779 27.475C10.5238 27.4744 9.58893 26.5386 9.58984 25.3842C9.58984 24.2313 10.5262 23.2955 11.6804 23.2964L18.1134 23.2989C18.6703 23.2989 19.1067 23.2441 19.4213 23.1362C19.736 23.0267 19.8938 22.8273 19.8944 22.5365C19.8944 22.3912 19.8761 22.2466 19.84 22.1004C19.8036 21.9548 19.7125 21.7552 19.5678 21.5013C19.4226 21.2469 19.2106 20.9139 18.932 20.5016C18.6538 20.0903 18.284 19.5441 17.8241 18.8659L16.1262 16.3267C15.4794 15.3591 15.7492 14.0475 16.7235 13.4123C16.8434 13.3344 16.9626 13.2564 17.0822 13.1787C17.2005 13.1019 17.3189 13.0249 17.4397 12.9484C18.4229 12.3169 19.736 12.6142 20.3501 13.6096L22.4042 16.942C23.251 18.323 23.8865 19.4738 24.3103 20.3943C24.7333 21.3157 24.9449 22.1512 24.9449 22.9029Z" fill="#F89C1C"/>
<mask id="mask1" mask-type="alpha" maskUnits="userSpaceOnUse" x="25" y="0" width="10" height="28">
<path fill-rule="evenodd" clip-rule="evenodd" d="M25.8398 0.305908H34.8209V27.4843H25.8398V0.305908Z" fill="white"/>
</mask>
<g mask="url(#mask1)">
<path fill-rule="evenodd" clip-rule="evenodd" d="M34.8209 25.2008C34.8206 26.0635 34.6995 26.6601 34.4585 26.9895C34.2163 27.3194 33.8426 27.4843 33.3353 27.4843L31.7365 27.4836C30.8738 27.4833 30.0808 27.3873 29.3576 27.1968C28.6346 27.0063 28.0126 26.6888 27.4937 26.2445C26.9732 25.8011 26.5677 25.2106 26.2762 24.4742C25.9845 23.7384 25.8392 22.8246 25.8398 21.7338L25.8469 2.77875C25.8481 1.41239 26.9557 0.305358 28.3224 0.305664C29.6885 0.307193 30.2863 1.41453 30.2857 2.78089L30.279 21.0506C30.2781 21.9384 30.4365 22.8295 30.7539 23.0702C31.0704 23.3124 32.0301 23.4323 32.6135 23.4323H32.8276C33.0304 23.4329 33.7304 23.4525 33.9077 23.4901C34.0851 23.5289 34.2435 23.6176 34.3836 23.757C34.5224 23.8971 34.6307 24.1063 34.7068 24.3852C34.7827 24.665 34.8209 24.7191 34.8209 25.2008Z" fill="#F89C1C"/>
</g>
<path fill-rule="evenodd" clip-rule="evenodd" d="M37.928 23.339C38.4326 23.339 38.9133 23.2374 39.3702 23.0331C39.8271 22.8292 40.0558 22.4148 40.0561 21.7894C40.0564 21.357 39.7861 20.7738 39.2454 20.0399C38.7047 19.3065 37.9898 18.5313 37.1011 17.7133C36.2112 16.8958 35.2023 16.0842 34.0732 15.2784C33.4164 14.8099 32.7561 14.3763 32.0913 13.9772C31.1711 13.424 30.7904 12.2637 31.2115 11.2769C31.2219 11.2515 31.2326 11.2267 31.2439 11.2016C31.472 10.6854 31.7066 10.2711 31.9473 9.95852C32.1873 9.64629 32.4222 9.41204 32.6503 9.25577C32.8791 9.0992 33.0653 8.98513 33.2096 8.91326L42.7158 4.72274C44.1668 4.0839 45.7962 5.1466 45.7959 6.73222C45.795 7.61907 45.261 8.41846 44.4424 8.75852L37.2833 11.7279V11.8359C38.7258 12.7732 39.9155 13.7004 40.8525 14.6133C41.7895 15.5279 42.5405 16.4172 43.1051 17.2827C43.669 18.1487 44.0598 18.9729 44.2757 19.7536C44.4916 20.535 44.5992 21.2628 44.5992 21.9356C44.5992 22.5127 44.521 23.1252 44.3647 23.775C44.2075 24.4234 43.9008 25.0249 43.4439 25.5769C42.9867 26.1304 42.3442 26.586 41.5145 26.9466C40.6846 27.3071 39.5965 27.4867 38.2506 27.4857H37.4207C37.2292 27.4857 36.2656 27.4674 36.0971 27.4313C35.9289 27.3946 35.7788 27.3105 35.646 27.1787C35.5148 27.0469 35.4124 26.8487 35.3402 26.5833C35.2681 26.3191 35.2326 25.9579 35.2326 25.5013C35.2326 24.6845 35.3476 24.1197 35.5754 23.8071C35.8047 23.4943 36.9421 23.3386 37.4222 23.339H37.928Z" fill="#42337C"/>
<path fill-rule="evenodd" clip-rule="evenodd" d="M99.1105 27.3839L95.4304 27.3827C95.0245 27.3824 94.6958 27.0536 94.6958 26.6481L94.6973 22.968C94.6979 22.5631 95.0267 22.2344 95.4322 22.2344L99.112 22.2359C99.5175 22.2359 99.846 22.565 99.846 22.9702L99.8447 26.6506C99.8435 27.0558 99.5151 27.3842 99.1105 27.3839Z" fill="#F89C1C"/>
<path fill-rule="evenodd" clip-rule="evenodd" d="M53.9606 19.6962L53.959 23.0436C53.8991 23.1228 53.8416 23.1946 53.7857 23.261L53.4175 23.5986C52.9719 24.0084 52.4508 24.0775 51.6407 24.1503C51.563 24.1524 51.4759 24.1619 51.3887 24.1726C51.3401 24.1787 51.2912 24.1864 51.2486 24.1864H50.9893C49.9043 24.053 49.1248 23.9393 49.0905 22.3179C49.1529 21.1457 49.6597 20.2983 51.9282 19.9692L51.9661 19.9622C52.0343 19.9469 52.1037 19.942 52.1771 19.9341C52.2749 19.9243 52.3786 19.9136 52.4768 19.8965C52.6104 19.8775 52.7352 19.8546 52.8667 19.8295C53.1431 19.7772 53.4474 19.7194 53.9606 19.6962ZM57.7245 22.7017L57.7269 14.5341C57.7275 14.0056 57.6077 12.9607 56.771 11.8668C55.7502 10.7705 53.9704 10.1411 51.8835 10.1399C47.7936 10.1796 46.2022 12.7121 46.1988 12.7188C45.9493 13.0992 45.8902 13.5365 46.0327 13.9524C46.1789 14.3803 46.5205 14.7347 46.9716 14.9384C47.3838 15.1509 47.8722 15.2084 48.3496 15.1004C48.8471 14.9879 49.2805 14.6989 49.545 14.294C49.5465 14.2928 49.6762 14.0888 49.986 13.9026C50.3847 13.6543 50.96 13.3693 51.8704 13.3683C53.8089 13.4292 53.8465 13.8781 53.878 14.2423C53.8777 14.391 53.9187 14.5212 53.9606 14.6182L53.9205 16.5971C53.9104 16.6283 53.9031 16.6601 53.8973 16.6922C53.6746 16.7344 53.4043 16.7781 53.0896 16.8231C47.2162 17.4858 45.6049 20.0748 45.2881 22.1298L45.2832 22.405C45.2823 24.02 45.9951 25.4026 47.2899 26.3007L47.2997 26.3072C48.6398 27.1925 50.048 27.3784 50.9939 27.3787H51.5019L51.5817 27.3735C52.4508 27.2546 53.3303 27.0185 54.2058 26.6689C54.5486 27.1521 55.1621 27.453 55.8863 27.4533H55.8872C56.5407 27.4237 57.0612 27.2396 57.3945 26.9209C57.66 26.668 57.7875 26.342 57.7655 25.9971L57.7248 23.29C57.7661 23.1142 57.7655 22.9329 57.7245 22.7017Z" fill="#42337C"/>
<path fill-rule="evenodd" clip-rule="evenodd" d="M68.8238 14.8262L68.7397 23.4779C68.3228 23.7562 67.4192 24.2424 65.7739 24.2418C63.6106 24.2412 62.5146 22.4895 62.5167 19.0363C62.5173 15.6522 63.6482 13.9617 65.9696 13.8681C65.9926 13.8672 66.0173 13.8663 66.0421 13.8663C66.7959 13.8672 68.0852 14.2657 68.8238 14.8262ZM70.7761 3.2522C69.7152 3.2522 68.9146 3.98156 68.914 4.94761L68.8751 11.432C67.8109 10.9183 66.7757 10.6809 65.7993 10.6834C63.999 10.6825 62.4791 11.1852 61.2822 12.1773C59.5672 13.5981 58.5834 16.0458 58.5834 18.8663C58.554 19.2525 58.4491 21.2812 59.2299 23.2819C60.1834 25.725 62.1017 27.1693 64.7767 27.4583H64.7794C65.1485 27.4968 65.4228 27.4968 65.6877 27.4968C66.9287 27.4972 68.1452 27.2397 69.2335 26.747C69.662 27.1663 70.1644 27.3932 70.6816 27.3932C71.7602 27.3935 72.543 26.6944 72.5433 25.7314L72.5947 4.95189C72.5947 3.96749 71.8302 3.25281 70.7761 3.2522Z" fill="#42337C"/>
<path fill-rule="evenodd" clip-rule="evenodd" d="M82.9618 17.4334L77.7743 17.3456C77.8655 16.8429 77.9948 16.2854 78.1364 15.9603C78.6731 14.8132 79.334 14.3132 80.3175 14.2878C81.6948 14.3157 81.9529 14.6842 82.5202 15.4921L82.5777 15.5716C82.7383 15.8563 82.8893 16.682 82.9618 17.4334ZM80.012 11.3105C76.9477 11.4236 75.1572 13.367 74.5575 14.9884C73.9089 16.6141 73.856 18.1279 73.8135 19.3444L73.811 19.4114C73.811 20.008 73.8104 21.8242 74.5116 23.6624C74.9398 24.7392 76.3092 27.2661 79.7786 27.482L80.4086 27.4842C84.3915 27.4854 85.8129 25.0257 85.9878 24.6909C86.3245 24.1955 86.422 23.627 86.2545 23.1267C86.1224 22.7361 85.8346 22.4218 85.4318 22.2371C84.5545 21.8536 83.3927 22.1343 82.8707 22.8499C82.8116 22.9147 82.7538 23.0004 82.6795 23.1236C82.089 23.9692 81.4043 24.5095 80.0055 24.4056C79.3951 24.3453 78.6902 24.0924 78.0948 22.6676C77.8465 22.1022 77.6777 21.2704 77.6016 20.2441L84.8979 20.2465C85.8419 20.2472 86.641 19.6432 86.7569 18.8416L86.7603 18.7933C86.7603 18.7481 86.7658 18.6799 86.7728 18.5958C86.786 18.4306 86.8037 18.2105 86.8037 17.9627C86.8037 16.4826 86.4973 15.2343 85.8698 14.1514C84.8318 12.3098 82.6517 11.2582 80.012 11.3105Z" fill="#42337C"/>
<path fill-rule="evenodd" clip-rule="evenodd" d="M98.8114 13.4268C97.7802 12.2173 96.3637 11.8986 94.9741 11.8977H94.9735C93.827 11.9344 92.1582 12.5775 91.564 13.7852C91.5646 12.5078 90.6135 12.0154 89.9967 12.0148C88.9291 12.0148 88.0924 12.802 88.0924 13.8072L88.0869 25.7974C88.0869 26.765 88.9401 27.5515 89.9903 27.5518C90.9814 27.5518 91.8521 26.7329 91.8524 25.7992L91.8554 17.994C91.8563 17.2225 92.1511 16.5644 92.7077 16.0904C93.3016 15.5873 94.1741 15.3225 94.9933 15.4026C95.4352 15.4341 95.7998 15.5995 96.1967 15.942C96.9016 16.6066 98.0465 16.6133 98.8178 15.9427C99.5352 15.2683 99.5426 14.1717 98.8114 13.4268Z" fill="#42337C"/>
</svg>
