<?xml version="1.0" encoding="utf-8"?>
<!-- Generator: Adobe Illustrator 22.0.1, SVG Export Plug-In . SVG Version: 6.00 Build 0)  -->
<svg version="1.1" id="Layer_1" xmlns="http://www.w3.org/2000/svg" xmlns:xlink="http://www.w3.org/1999/xlink" x="0px" y="0px"
	 viewBox="0 0 171.3 76.9" style="enable-background:new 0 0 171.3 76.9;" xml:space="preserve">
<style type="text/css">
	.st0{fill:#FFFFFF;}
	.st1{fill:#88BB40;}
</style>
<title>logo</title>
<g id="Layer_2_1_">
	<g id="Layer_1-2">
		<path class="st0" d="M4.8,62.4V14h9.4v48.3H4.8V62.4z M15.6,52.9h20.7v9.4H20.9L15.6,52.9z"/>
		<path class="st0" d="M57.8,14c3.2,0,6.4,0.6,9.3,1.9c5.7,2.5,10.1,7.1,12.4,12.8c1.2,3,1.8,6.2,1.8,9.4c0,2.7-0.4,5.5-1.3,8.1
			c-0.8,2.5-2,4.9-3.6,6.9c-1.6,2.1-3.5,3.9-5.6,5.3c-2.3,1.5-4.7,2.6-7.3,3.2l-4.5-8c1.8-0.1,3.6-0.6,5.1-1.5c1.5-0.9,2.9-2,4-3.4
			s2-3,2.6-4.8c0.6-1.9,1-3.8,1-5.7c0-2-0.3-4.1-1-6c-0.6-1.8-1.6-3.4-2.9-4.9c-1.2-1.4-2.7-2.5-4.3-3.3c-3.5-1.6-7.6-1.6-11.1,0
			c-1.7,0.8-3.1,1.9-4.4,3.3s-2.3,3.1-2.9,4.9c-1.4,3.9-1.4,8.1,0,12c0.6,1.8,1.6,3.5,2.9,4.9c1.2,1.4,2.7,2.5,4.4,3.3
			c1.7,0.8,3.6,1.2,5.6,1.2v8.7c-6.3,0-12.4-2.5-16.7-7.1c-2.1-2.2-3.8-4.9-4.9-7.7c-1.2-3-1.8-6.2-1.8-9.4s0.6-6.4,1.8-9.4
			c2.3-5.7,6.7-10.4,12.4-12.8C51.5,14.7,54.6,14,57.8,14z"/>
		<path class="st0" d="M132.1,36.3c0,0.7,0.1,1.3,0.1,2c0,3.2-0.6,6.4-1.8,9.4c-1.1,2.9-2.8,5.4-4.9,7.7c-4.4,4.6-10.4,7.1-16.7,7
			c-3.2,0-6.4-0.6-9.4-1.9c-5.8-2.4-10.4-7-12.8-12.8c-1.3-3-1.9-6.1-1.9-9.4s0.6-6.4,1.9-9.4c2.4-5.8,7-10.4,12.8-12.8
			c3-1.3,6.1-1.9,9.4-1.9c4.2,0,8.3,1,11.9,3.1c3.5,2,6.4,4.9,8.6,8.2l-7.9,5c-1.1-2.4-2.9-4.4-5.1-5.8c-2.2-1.4-4.8-2.2-7.4-2.2
			c-2,0-3.9,0.4-5.7,1.3c-1.7,0.8-3.3,2-4.6,3.4c-1.3,1.4-2.4,3.1-3.1,5c-1.5,3.9-1.5,8.3,0,12.2c0.7,1.9,1.8,3.5,3.1,5
			c1.3,1.4,2.9,2.6,4.6,3.4c3.2,1.5,6.9,1.7,10.2,0.4c1.4-0.5,2.7-1.3,3.9-2.3s2.1-2.2,2.9-3.5c0.9-1.4,1.5-2.9,1.9-4.4h-12.3
			l-4.9-8.7h27C132,34.9,132,35.6,132.1,36.3z"/>
		<path class="st1" d="M167.7,14l0.1,8.6h-22.1L145.6,54h22.1v8.4h-31.5V14H167.7z M161.4,43h-10l-4.9-8.7h14.8L161.4,43L161.4,43z"
			/>
	</g>
</g>
</svg>
