<svg width="111" height="58" viewBox="0 0 111 58" fill="none" xmlns="http://www.w3.org/2000/svg">
<path d="M3.45824 44.4875C3.84718 43.7391 4.43795 43.1151 5.16332 42.6865C5.896 42.2573 6.73147 42.036 7.58011 42.0463C8.37773 42.0263 9.16596 42.2222 9.86175 42.6135C10.464 42.9478 10.9635 43.4407 11.3062 44.039V42.2116H12.9841V52.2287H11.3062V50.3644C10.9554 50.9719 10.448 51.4737 9.83718 51.8172C9.14623 52.2119 8.36121 52.411 7.56607 52.3932C6.71779 52.404 5.88348 52.1761 5.15806 51.7354C4.43335 51.2885 3.84623 50.6494 3.46175 49.8887C3.03756 49.0513 2.82454 48.1226 2.84132 47.1837C2.81992 46.2475 3.03197 45.3208 3.45824 44.4875ZM10.8464 45.2271C10.5656 44.6906 10.1398 44.2442 9.61779 43.9388C9.09844 43.647 8.51332 43.4929 7.91791 43.4912C7.32249 43.4895 6.73651 43.6402 6.21552 43.9291C5.69374 44.231 5.26805 44.675 4.98781 45.2095C4.67258 45.8186 4.51593 46.4977 4.53237 47.1837C4.51534 47.8785 4.6719 48.5665 4.98781 49.1852C5.26749 49.7249 5.69329 50.1748 6.21639 50.4831C6.73019 50.7824 7.31491 50.9377 7.9092 50.9325C8.50748 50.9382 9.09643 50.7837 9.61516 50.4849C10.1392 50.1777 10.5652 49.7275 10.8437 49.1869C11.1584 48.5744 11.3153 47.8927 11.3001 47.2039C11.3173 46.5172 11.1613 45.8372 10.8464 45.2271Z" fill="#00C4B3"/>
<path d="M24.9298 38.7012V52.2287H23.2695V38.7012H24.9298Z" fill="#00C4B3"/>
<path d="M35.2918 40.2551C35.1336 40.0964 35.0259 39.8941 34.9825 39.674C34.939 39.4539 34.9617 39.2258 35.0477 39.0187C35.1337 38.8115 35.2791 38.6346 35.4655 38.5103C35.6519 38.386 35.8709 38.3199 36.0948 38.3205C36.2397 38.3181 36.3835 38.3461 36.5169 38.4028C36.6504 38.4594 36.7705 38.5434 36.8697 38.6493C37.0748 38.8667 37.189 39.1544 37.189 39.4535C37.189 39.7526 37.0748 40.0404 36.8697 40.2577C36.7705 40.3637 36.6504 40.4477 36.5169 40.5043C36.3835 40.561 36.2397 40.589 36.0948 40.5866C35.9454 40.5895 35.7971 40.5616 35.6589 40.5045C35.5208 40.4475 35.3958 40.3626 35.2918 40.2551ZM36.8969 42.2117V52.2288H35.2374V42.2117H36.8969Z" fill="#00C4B3"/>
<path d="M53.5955 42.6138C54.2004 42.9462 54.7021 43.4395 55.0452 44.0393V42.2119H56.724V52.4479C56.7392 53.2981 56.5384 54.1381 56.1404 54.8891C55.7567 55.5952 55.1777 56.1754 54.473 56.5599C53.6965 56.9748 52.8264 57.1825 51.9466 57.1631C50.7814 57.2061 49.6323 56.8799 48.6628 56.231C48.2399 55.9412 47.883 55.5652 47.6153 55.1275C47.3476 54.6898 47.1752 54.2004 47.1095 53.6914H48.7514C48.9359 54.304 49.3384 54.8275 49.8826 55.1626C50.5 55.5476 51.217 55.7418 51.9439 55.721C52.3551 55.7366 52.7651 55.6685 53.1491 55.5206C53.5332 55.3728 53.8833 55.1484 54.1782 54.8609C54.4787 54.5388 54.7104 54.1587 54.8594 53.7438C55.0083 53.329 55.0712 52.888 55.0443 52.4479V50.3462C54.6952 50.9545 54.1925 51.46 53.5867 51.8121C52.9009 52.2125 52.1179 52.4149 51.3244 52.3969C50.4717 52.409 49.6328 52.1805 48.9035 51.7377C48.1742 51.2948 47.5839 50.6554 47.1999 49.8924C46.7757 49.0551 46.5627 48.1263 46.5795 47.1874C46.5591 46.251 46.7724 45.3242 47.1999 44.4913C47.5891 43.7427 48.1801 43.1187 48.9058 42.6903C49.6385 42.261 50.474 42.0397 51.3226 42.0501C52.1169 42.0311 52.9017 42.2258 53.5955 42.6138ZM54.5898 45.2273C54.3087 44.6911 53.883 44.2447 53.3612 43.939C52.8418 43.6472 52.2567 43.4932 51.6613 43.4915C51.0659 43.4898 50.4799 43.6405 49.9589 43.9293C49.4389 44.2318 49.015 44.6757 48.7365 45.2097C48.421 45.8188 48.264 46.4979 48.2801 47.1839C48.2634 47.8788 48.4203 48.5668 48.7365 49.1854C49.0142 49.7245 49.4379 50.1743 49.9589 50.4834C50.4739 50.7828 51.0599 50.9374 51.6552 50.931C52.2535 50.9365 52.8424 50.782 53.3612 50.4834C53.885 50.1759 54.311 49.7258 54.5898 49.1854C54.9041 48.5728 55.0607 47.8911 55.0452 47.2024C55.0616 46.5161 54.905 45.8368 54.5898 45.2273Z" fill="#00C4B3"/>
<path d="M74.8395 43.134C75.2357 43.56 75.5405 44.0629 75.7351 44.6117C75.9296 45.1604 76.0098 45.7433 75.9707 46.3243V52.2285H74.3288V46.5618C74.3852 45.7287 74.1169 44.9062 73.5802 44.2675C73.3148 43.9984 72.9955 43.7887 72.6434 43.6523C72.2913 43.5159 71.9143 43.4558 71.5373 43.476C71.1509 43.4574 70.765 43.5211 70.405 43.6628C70.045 43.8045 69.7191 44.0211 69.4487 44.2983C68.8904 44.9656 68.6123 45.8241 68.6729 46.6928V52.2329H67.0117V42.2115H68.6712V43.6334C69.0007 43.1211 69.465 42.71 70.013 42.4454C70.5948 42.1612 71.2349 42.0173 71.8821 42.0251C72.424 42.0023 72.965 42.0887 73.473 42.2791C73.9809 42.4696 74.4456 42.7603 74.8395 43.134Z" fill="#00C4B3"/>
<path d="M95.2332 47.8419H87.2475C87.2477 48.264 87.3327 48.6817 87.4973 49.0703C87.6619 49.4588 87.9029 49.8102 88.2058 50.1035C88.5088 50.3968 88.8675 50.6261 89.2607 50.7776C89.6538 50.9292 90.0734 50.9999 90.4944 50.9856C91.131 51.0091 91.759 50.8336 92.2916 50.4835C92.7654 50.1572 93.1207 49.6857 93.3043 49.1398H95.0919C94.8379 50.0824 94.272 50.9105 93.4869 51.4887C92.6164 52.113 91.5642 52.4312 90.4944 52.3935C89.6047 52.4089 88.7268 52.1883 87.9495 51.7542C87.2018 51.3281 86.591 50.6969 86.1891 49.9348C85.7494 49.0927 85.5296 48.1527 85.5503 47.2026C85.5291 46.2564 85.7422 45.3198 86.1707 44.4765C86.5632 43.7187 87.1688 43.0928 87.9126 42.6764C88.7035 42.2446 89.5931 42.0269 90.4935 42.045C91.3726 42.0276 92.2408 42.242 93.0112 42.6667C93.7242 43.0645 94.3095 43.6575 94.6988 44.3762C95.1018 45.1332 95.3057 45.9806 95.2911 46.8385C95.2892 47.1737 95.2698 47.5086 95.2332 47.8419ZM93.1534 44.852C92.8809 44.402 92.4848 44.0403 92.0126 43.8099C91.5149 43.5702 90.9684 43.4498 90.4163 43.4582C89.6252 43.4397 88.8575 43.728 88.2733 44.2628C87.6608 44.8471 87.2979 45.6463 87.2606 46.4929H93.572C93.5887 45.9177 93.4436 45.3494 93.1534 44.8528V44.852Z" fill="#00C4B3"/>
<path d="M107.867 42.5041C108.473 42.1715 109.156 42.0075 109.847 42.0293V43.7476H109.408C107.548 43.7476 106.617 44.7589 106.616 46.7814V52.2292H104.957V42.2122H106.616V43.839C106.895 43.2816 107.329 42.8177 107.867 42.5041Z" fill="#00C4B3"/>
<path d="M106.199 4.6689C104.816 3.27383 103.171 2.1668 101.359 1.41158C99.5466 0.656371 97.6034 0.267902 95.6409 0.268556C93.6784 0.269209 91.7354 0.658971 89.9239 1.41539C88.1123 2.17181 86.4681 3.27994 85.0858 4.67593C83.6645 6.03405 82.5405 7.67347 81.7851 9.4901C81.0298 11.3067 80.6596 13.2609 80.698 15.2285V27.5399C80.6987 28.254 80.9821 28.9387 81.4861 29.4437C81.99 29.9487 82.6733 30.2327 83.386 30.2334H83.737C84.4496 30.2327 85.1328 29.9489 85.6369 29.4441C86.1409 28.9393 86.4247 28.2549 86.4258 27.5408V15.2294C86.4258 12.7781 87.3976 10.4271 89.1273 8.69379C90.8571 6.96044 93.2031 5.98666 95.6493 5.98666C98.0956 5.98666 100.442 6.96044 102.171 8.69379C103.901 10.4271 104.873 12.7781 104.873 15.2294V27.5408C104.874 28.255 105.157 28.9397 105.661 29.4447C106.166 29.9496 106.849 30.2336 107.562 30.2343H107.913C108.625 30.2336 109.309 29.9496 109.813 29.4446C110.317 28.9396 110.6 28.2549 110.601 27.5408V15.2294C110.637 13.2595 110.265 11.3035 109.507 9.48554C108.75 7.66755 107.623 6.02729 106.199 4.6689Z" fill="#00C4B3"/>
<path d="M43.5737 14.2096C44.1375 14.209 44.6863 14.0271 45.1393 13.6905C45.5922 13.3539 45.9253 12.8805 46.0896 12.34C46.6927 10.2996 47.9378 8.50921 49.6394 7.23593C51.3409 5.96266 53.4076 5.27472 55.5312 5.27472C57.6548 5.27472 59.7215 5.96266 61.423 7.23593C63.1246 8.50921 64.3697 10.2996 64.9728 12.34C65.1371 12.8805 65.4702 13.3539 65.9231 13.6905C66.3761 14.0271 66.9249 14.209 67.4887 14.2096C67.8999 14.2095 68.3053 14.1129 68.6725 13.9276C69.0397 13.7423 69.3585 13.4734 69.6033 13.1424C69.8482 12.8114 70.0122 12.4275 70.0824 12.0215C70.1525 11.6156 70.1268 11.1988 70.0073 10.8046C69.0773 7.72014 67.197 5.00975 64.6358 3.06162C62.0135 1.07738 58.8171 0.00390625 55.5312 0.00390625C52.2453 0.00390625 49.0489 1.07738 46.4266 3.06162C43.8654 5.00975 41.9851 7.72014 41.0551 10.8046C40.9356 11.1988 40.9099 11.6156 40.98 12.0215C41.0502 12.4275 41.2142 12.8114 41.4591 13.1424C41.7039 13.4734 42.0227 13.7423 42.3899 13.9276C42.7571 14.1129 43.1625 14.2095 43.5737 14.2096Z" fill="#00C4B3"/>
<path d="M67.7544 16.9365H67.3244C66.7945 16.9374 66.2796 17.1128 65.859 17.4357C65.4383 17.7586 65.1352 18.211 64.9963 18.7234C64.4067 20.7829 63.1643 22.5942 61.4566 23.8835C59.749 25.1728 57.669 25.8701 55.531 25.8701C53.3929 25.8701 51.3129 25.1728 49.6053 23.8835C47.8977 22.5942 46.6552 20.7829 46.0657 18.7234C45.9267 18.211 45.6236 17.7586 45.203 17.4357C44.7823 17.1128 44.2674 16.9374 43.7375 16.9365H43.3075C42.9335 16.9363 42.5645 17.0225 42.2292 17.1885C41.8938 17.3545 41.6013 17.5958 41.3742 17.8936C41.1472 18.1914 40.9918 18.5377 40.9201 18.9055C40.8484 19.2734 40.8624 19.6528 40.9609 20.0144C41.8377 23.2127 43.7382 26.0341 46.3704 28.045C49.0027 30.0559 52.221 31.145 55.531 31.145C58.8409 31.145 62.0592 30.0559 64.6915 28.045C67.3237 26.0341 69.2243 23.2127 70.101 20.0144C70.1996 19.6528 70.2135 19.2734 70.1419 18.9055C70.0702 18.5377 69.9148 18.1914 69.6877 17.8936C69.4606 17.5958 69.1681 17.3545 68.8327 17.1885C68.4974 17.0225 68.1284 16.9363 67.7544 16.9365Z" fill="#00C4B3"/>
<path d="M6.6543 18.284V18.2901C6.66925 18.3332 6.68507 18.3781 6.69738 18.4221L6.70442 18.4432L6.6543 18.2734C6.6543 18.2734 6.6543 18.2805 6.6543 18.284Z" fill="#00C4B3"/>
<path d="M6.7763 18.6818H6.78421C6.75871 18.6026 6.72882 18.5244 6.70508 18.4443L6.7763 18.6818Z" fill="#00C4B3"/>
<path d="M6.48423 17.7003H28.0905C28.2536 17.6999 28.4163 17.6846 28.5766 17.6546C28.5766 17.6546 32.4431 17.5341 30.631 11.0592C30.6143 10.9713 30.5959 10.8886 30.5713 10.8042C30.4932 10.5404 30.4054 10.2845 30.3133 10.0286C30.3072 10.011 30.3028 9.99428 30.2966 9.97669C29.2938 7.22916 27.5251 4.82776 25.2007 3.05771C22.5784 1.07347 19.382 0 16.0961 0C12.8101 0 9.61376 1.07347 6.99145 3.05771C4.43124 5.00475 2.55135 7.71351 1.62083 10.7963C1.72877 10.543 -0.134281 14.1327 1.51991 19.9709C1.51991 19.9814 1.5243 19.992 1.52693 20.0025C1.67045 20.5242 1.84212 21.0376 2.04117 21.5406L2.05346 21.574C3.17332 24.3904 5.10931 26.8062 7.61187 28.5099C10.1144 30.2136 13.0689 31.1272 16.0943 31.1329H16.1628C18.511 31.1294 20.8263 30.5786 22.9257 29.5242C25.025 28.4697 26.8509 26.9405 28.2589 25.0572C28.558 24.6596 28.7409 24.1865 28.7872 23.6908C28.8336 23.1951 28.7416 22.6962 28.5216 22.2498C28.3015 21.8034 27.962 21.427 27.541 21.1626C27.1199 20.8983 26.6339 20.7563 26.137 20.7526C25.7453 20.7554 25.3597 20.8508 25.0119 21.0313C24.664 21.2118 24.3636 21.4722 24.1353 21.7912C23.2203 23.0512 22.0216 24.0771 20.6367 24.7858C19.2518 25.4944 17.7196 25.8658 16.1645 25.8698C14.048 25.8025 12.0055 25.0732 10.3233 23.7842C8.64115 22.4952 7.40368 20.711 6.78435 18.6817L6.64482 18.242L6.48423 17.7003ZM16.0961 5.27552C18.2031 5.2843 20.2525 5.9665 21.946 7.2229C23.6395 8.4793 24.8888 10.2444 25.5122 12.2613H6.67992C7.30321 10.2443 8.55249 8.47915 10.246 7.22273C11.9395 5.96631 13.9889 5.28416 16.0961 5.27552Z" fill="#00C4B3"/>
</svg>
