<?xml version="1.0" encoding="UTF-8"?>
<svg width="313px" height="81px" viewBox="0 0 313 81" version="1.1" xmlns="http://www.w3.org/2000/svg" xmlns:xlink="http://www.w3.org/1999/xlink">
    <title>POSRocket - a Foodics company logo 2 </title>
    <g id="Page-1" stroke="none" stroke-width="1" fill="none" fill-rule="evenodd">
        <g id="POSRocket---a-Foodics-company-logo-2-" fill-rule="nonzero">
            <g id="Group">
                <g>
                    <path d="M68.4702942,25.63152 C67.1563653,11.2421793 54.8605864,0 40.3587046,0 C25.8568228,0 13.5610438,11.2421793 12.2471149,25.6477424 C4.6879685,29.7358076 0,37.5874884 0,46.2016258 C0,59.0011633 10.414103,69.4808861 23.228965,69.5619985 L23.4722852,69.5619985 C23.5209492,69.5619985 23.5533919,69.5619985 23.5858346,69.545776 C25.3864038,69.3997737 26.7814394,67.8910829 26.7814394,66.0741651 C26.7814394,64.2572472 25.3864038,62.7485565 23.5858346,62.6025541 C23.5533919,62.5863316 23.5047279,62.5863316 23.4560638,62.5863316 L23.3587358,62.5863316 C14.323447,62.5863316 6.97517804,55.2375478 6.97517804,46.2016258 C6.97517804,38.3986125 12.5228778,31.6338379 20.1793523,30.1251472 C22.6774393,29.6384728 23.6669413,27.5295502 23.3425144,25.8099672 C23.0667516,24.3986114 21.8339294,23.068368 19.7251546,23.1657028 C22.0285855,13.7566639 30.6096767,6.9918893 40.3587046,6.9918893 C52.0705152,6.9918893 61.6086656,16.5307081 61.6086656,28.2433394 C61.6086656,29.2329107 61.5437802,30.2387046 61.3977881,31.1958309 C61.0409185,33.7589829 62.5170609,35.2352287 64.122974,35.5596783 C65.5180096,35.8354605 67.1725867,35.2676737 67.9187685,33.6778705 C71.617235,36.8088094 73.7260098,41.3348815 73.7260098,46.2016258 C73.7260098,55.2375478 66.3777408,62.5863316 57.342452,62.5863316 L57.245124,62.5863316 C55.314784,62.5863316 53.757535,64.1436898 53.757535,66.0741651 C53.757535,68.0046403 55.314784,69.5619985 57.245124,69.5619985 L57.342452,69.5619985 C70.2221994,69.5619985 80.7015206,59.0822757 80.7015206,46.2016258 C80.7336305,37.5874884 76.045662,29.7358076 68.4702942,25.63152 Z" id="Path" fill="#00A8E2"></path>
                    <g id="Path" transform="translate(29.133534, 53.826192)" fill="#F5831F">
                        <path d="M0,17.2607198 C0,19.1263051 1.65457712,20.6349958 3.56869574,20.3754361 C5.15838748,20.1645439 6.29388158,18.7369655 6.29388158,17.1309399 L6.29388158,2.3035923 C6.29388158,1.47624577 5.49903571,0.876013973 4.70418984,1.10312871 C3.32537558,1.52491321 1.979004,2.0440326 0.68129646,2.69293184 C0.259541509,2.9038241 0,3.34183108 0,3.79606055 L0,17.2607198 L0,17.2607198 Z"></path>
                        <path d="M8.07822945,1.33024344 L8.07822945,23.4901525 C8.07822945,25.0961781 9.21372355,26.5237564 10.8034153,26.7346487 C12.7175339,26.9942084 14.372111,25.4855176 14.372111,23.6199323 L14.372111,1.33024344 C14.372111,0.66512172 13.853028,0.129779848 13.2041742,0.0811124049 C12.5390991,0.032444962 11.8902454,0 11.2251702,0 C10.5600951,0 9.89502001,0.032444962 9.24616624,0.0811124049 C8.59731247,0.146002329 8.07822945,0.681344201 8.07822945,1.33024344 Z"></path>
                        <path d="M16.1564589,2.31981478 L16.1564589,17.1471624 C16.1564589,18.753188 17.291953,20.1807663 18.8816447,20.3916586 C20.7957634,20.6512183 22.4503405,19.1425276 22.4503405,17.2769422 L22.4503405,3.84472799 C22.4503405,3.37427604 22.190799,2.93626906 21.769044,2.74159929 C20.4713365,2.09270005 19.1249649,1.55735817 17.7461506,1.15179615 C16.9675261,0.876013973 16.1564589,1.49246825 16.1564589,2.31981478 Z"></path>
                    </g>
                    <path d="M53.9684124,36.2085776 C53.5304361,28.8597937 50.7728076,22.1274641 46.4417087,16.7253779 C43.3109892,12.8319825 37.4226413,12.8319825 34.2919218,16.7253779 C29.9446015,22.1274641 27.2031944,28.8597937 26.7652181,36.2085776 C22.2556844,38.787952 20.8282061,45.9745111 23.2451864,52.6095058 C23.8453761,54.2641989 25.7757161,55.0266555 27.3491865,54.2155315 C31.2585304,52.2201663 35.6869574,51.0845926 40.3911473,51.0845926 C45.0791158,51.0845926 49.5075428,52.2039438 53.4331081,54.2155315 C54.9903571,55.010433 56.9369184,54.2479764 57.5371082,52.5932834 C59.9054244,45.9745111 58.4779461,38.787952 53.9684124,36.2085776 Z M40.3587046,33.5318682 C38.3310365,33.5318682 36.6926808,31.8933976 36.6926808,29.8655875 C36.6926808,27.8377774 38.3310365,26.1993068 40.3587046,26.1993068 C42.3863726,26.1993068 44.0247284,27.8377774 44.0247284,29.8655875 C44.0247284,31.8933976 42.3863726,33.5318682 40.3587046,33.5318682 Z" id="Shape" fill="#818181"></path>
                </g>
                <g transform="translate(93.808034, 7.997683)" fill="#818181">
                    <path d="M-1.42108547e-14,30.4333743 L-1.42108547e-14,1.52491321 L10.5114311,1.52491321 C17.9894708,1.52491321 21.8663721,4.88296678 21.8663721,10.9826196 L21.8663721,11.1448444 C21.8663721,17.1633849 17.6650439,20.3592136 10.835858,20.3592136 L7.44559703,20.3592136 L7.44559703,30.4171518 L-1.42108547e-14,30.4171518 L-1.42108547e-14,30.4333743 Z M7.42937568,15.1517972 L10.2518896,15.1517972 C13.1555102,15.1517972 14.6965379,13.7728864 14.6965379,11.1935119 L14.6965379,11.0312871 C14.6965379,8.28968778 13.0419608,7.18655908 10.2518896,7.18655908 L7.42937568,7.18655908 L7.42937568,15.1517972 L7.42937568,15.1517972 Z" id="Shape"></path>
                    <path d="M24.6077793,16.1575911 L24.6077793,15.8331414 C24.6077793,7.10544667 31.1125383,1.11935119 39.7260722,1.11935119 C48.4531554,1.11935119 54.844365,6.81344201 54.844365,15.6222492 L54.844365,15.9466988 C54.844365,24.723061 48.8262463,30.9038898 39.6449654,30.9038898 C30.4312419,30.9200488 24.6077793,24.7392835 24.6077793,16.1575911 Z M47.0094557,16.0764787 L47.0094557,15.752029 C47.0094557,10.4148328 44.2193845,6.97566682 39.7422935,6.97566682 C35.2165384,6.97566682 32.4264672,10.2850529 32.4264672,15.784474 L32.4264672,16.1089236 C32.4264672,18.8505229 33.1077637,21.0405578 34.4865779,22.6141385 C35.8653922,24.1877191 37.6335187,24.9665121 39.7747362,24.9665121 C44.2518272,24.9826207 47.0094557,21.5434547 47.0094557,16.0764787 Z" id="Shape"></path>
                    <path d="M56.9369184,21.3001175 L64.0905313,21.3001175 C64.2040807,22.4681362 64.5771716,23.441485 65.2584681,24.285054 C65.9397645,25.0961781 67.2374721,25.5017401 69.1353693,25.5017401 C71.7632271,25.5017401 73.3366975,24.1714967 73.3366975,22.192354 C73.3366975,21.1865602 72.9798279,20.4889935 72.2823101,20.0509865 C71.6010137,19.6129795 70.2546421,19.2398624 68.3567448,18.9640803 C64.4798435,18.4774058 61.722215,17.5527244 60.0676379,16.222481 C58.4455035,14.8922375 57.6344362,12.783315 57.6344362,9.96060332 C57.6344362,4.91541174 61.8844284,1.15179615 68.5514009,1.15179615 C75.2994802,1.15179615 79.1763815,4.05562025 79.7116858,10.0092708 L72.7527291,10.0092708 C72.4283022,7.70567847 71.098152,6.53765984 68.5514009,6.53765984 C66.0046499,6.53765984 64.7556064,7.75434591 64.7556064,9.40903897 C64.7556064,10.3337204 65.0800333,11.0312871 65.680223,11.5179615 C66.3290768,11.9559685 67.659227,12.3290855 69.638231,12.6048677 C76.7918438,13.4484367 80.5065317,15.346467 80.5065317,21.4947873 C80.5065317,26.7022037 76.2240968,30.9524937 69.1029267,30.9524937 C61.1869106,30.9200488 57.2289026,27.318658 56.9369184,21.3001175 Z" id="Path"></path>
                    <path d="M84.8214093,30.4333743 L84.8214093,1.52491321 L95.6897099,1.52491321 C102.843323,1.52491321 107.174422,4.50984971 107.174422,10.4959452 L107.174422,10.65817 C107.174422,14.8597926 104.822327,17.2120523 101.642943,18.2989586 L108.877663,30.4171518 L100.961647,30.4171518 L94.6191012,19.7103144 L92.2670063,19.7103144 L92.2670063,30.4171518 L84.8214093,30.4171518 L84.8214093,30.4333743 Z M92.2670063,14.7462352 L95.3815044,14.7462352 C98.4148958,14.7462352 99.9072594,13.4971042 99.9072594,10.9501747 L99.9072594,10.7879499 C99.9072594,8.15990794 98.285125,7.18655908 95.4139471,7.18655908 L92.2670063,7.18655908 L92.2670063,14.7462352 L92.2670063,14.7462352 Z" id="Shape"></path>
                    <path d="M109.607623,20.1320989 L109.607623,19.8076493 C109.607623,13.0104298 114.652461,8.72769477 121.205884,8.72769477 C127.710644,8.72769477 132.723039,12.8968724 132.723039,19.596757 L132.723039,19.9212066 C132.723039,26.7995386 127.678201,30.9200488 121.15722,30.9200488 C114.63624,30.9200488 109.607623,26.9617634 109.607623,20.1320989 Z M125.37477,20.0023191 L125.37477,19.6778694 C125.37477,16.1251461 123.963513,14.1460034 121.205884,14.1460034 C118.49692,14.1460034 117.004556,16.0440337 117.004556,19.596757 L117.004556,19.9212066 C117.004556,23.5225974 118.464477,25.534377 121.205884,25.534377 C123.914849,25.5504076 125.37477,23.5225974 125.37477,20.0023191 Z" id="Shape"></path>
                    <path d="M134.734486,20.1320989 L134.734486,19.8076493 C134.734486,12.81576 139.779324,8.72769477 146.00832,8.72769477 C151.182929,8.72769477 155.919561,10.9988421 156.357538,17.4229446 L149.560794,17.4229446 C149.236367,15.4438019 148.263087,14.3568957 146.170533,14.3568957 C143.623782,14.3568957 142.131419,16.1738135 142.131419,19.7265369 L142.131419,20.0509865 C142.131419,23.7334897 143.542676,25.63152 146.300304,25.63152 C148.279308,25.63152 149.771672,24.4148339 149.982549,22.1112416 L156.487308,22.1112416 C156.292652,27.4484378 152.64285,30.9200488 145.862328,30.9200488 C139.552225,30.9200488 134.734486,27.2375456 134.734486,20.1320989 Z" id="Path"></path>
                    <polygon id="Path" points="159.439593 30.4333743 159.439593 0 166.674313 0 166.674313 17.6662818 172.368004 9.2954816 179.878487 9.2954816 172.968194 18.8018555 180.446234 30.4495968 172.368004 30.4495968 166.674313 21.1865602 166.674313 30.4495968 159.439593 30.4495968"></polygon>
                    <path d="M180.527341,20.1320989 L180.527341,19.8076493 C180.527341,13.0104298 185.572179,8.72769477 191.963388,8.72769477 C197.705744,8.72769477 202.71814,12.0370809 202.71814,19.6454245 L202.71814,21.5434547 L187.843167,21.5434547 C188.037823,24.285054 189.659957,25.9559696 192.255372,25.9559696 C194.63991,25.9559696 195.645633,24.8690634 195.937618,23.4577075 L202.734361,23.4577075 C202.085507,28.194672 198.370819,30.9362712 192.028274,30.9362712 C185.377522,30.9200488 180.527341,27.0428758 180.527341,20.1320989 Z M195.694297,17.4553895 C195.580748,14.90846 194.28304,13.4971042 191.97961,13.4971042 C189.838392,13.4971042 188.297364,14.90846 187.940495,17.4553895 L195.694297,17.4553895 Z" id="Shape"></path>
                    <path d="M206.805918,23.6361548 L206.805918,14.2108933 L204.259167,14.2108933 L204.259167,9.27925912 L206.805918,9.27925912 L206.805918,4.8667443 L214.040638,4.8667443 L214.040638,9.27925912 L218.209523,9.27925912 L218.209523,14.2108933 L214.040638,14.2108933 L214.040638,22.9385881 C214.040638,24.4310564 214.851705,25.161068 216.181855,25.161068 C216.992922,25.161068 217.593112,24.9988432 218.241966,24.8041734 L218.241966,30.3035945 C217.317349,30.4982643 215.889871,30.9039955 214.235294,30.9039955 C209.514883,30.9200488 206.805918,28.6164565 206.805918,23.6361548 Z" id="Path"></path>
                </g>
            </g>
            <g id="Group" transform="translate(93.714696, 46.762099)" fill="#818181">
                <g transform="translate(18.792350, 0.534856)">
                    <path d="M89.6125722,7.78884479 L89.6125722,7.78884479 C89.4989742,7.40441683 89.3366914,7.07013164 89.141952,6.76927498 C88.9472126,6.46841831 88.7200167,6.21770442 88.4603642,6.00041905 C88.2007117,5.79984794 87.9410591,5.61599109 87.6489501,5.48227702 C87.3730693,5.34856295 87.0809602,5.24827739 86.8050794,5.18142035 C86.5291986,5.11456332 86.2533178,5.0811348 85.9936653,5.0811348 L80.962898,5.0811348 C80.6383323,5.0811348 80.4111364,4.9975635 80.2326253,4.81370665 C80.0541142,4.6298498 79.9729728,4.37913591 79.9729728,4.02813647 C79.9729728,3.69385128 80.0541142,3.42642314 80.2326253,3.24256629 C80.3949081,3.05870943 80.6383323,2.95842388 80.9466697,2.95842388 L88.6713318,2.95842388 L88.6713318,0.0334285184 L80.9466697,0.0334285184 C80.5571909,0.0334285184 80.1514839,0.100285555 79.7133203,0.250713888 C79.2751567,0.384427962 78.8532213,0.618427591 78.4637426,0.935998515 C78.0742638,1.25356944 77.7659264,1.67142592 77.5062739,2.1728537 C77.2466214,2.67428147 77.1167952,3.30942332 77.1167952,4.02813647 C77.1167952,4.74684961 77.2466214,5.38199146 77.5062739,5.88341924 C77.7496982,6.38484702 78.0742638,6.8027035 78.4637426,7.12027442 C78.836993,7.43784535 79.2589284,7.65513072 79.7133203,7.80555905 C80.1514839,7.93927312 80.5734192,8.02284442 80.9466697,8.02284442 L85.9449805,8.02284442 C86.1072633,8.02284442 86.2370896,8.05627294 86.3669158,8.10641571 C86.4805138,8.15655849 86.5778835,8.22341553 86.6590249,8.30698682 C86.7401663,8.40727238 86.8050794,8.50755794 86.8537643,8.64127201 C86.9024491,8.77498608 86.9186774,8.92541442 86.9186774,9.09255701 C86.9186774,9.42684219 86.837536,9.67755608 86.6590249,9.87812719 C86.4967421,10.061984 86.2533178,10.1455553 85.9287522,10.1455553 L77.2141649,10.1455553 L77.2141649,13.0705507 L85.9287522,13.0705507 C86.1884047,13.0705507 86.4642855,13.0371222 86.7401663,12.9702651 C87.0322754,12.9034081 87.3081562,12.8031226 87.6002652,12.6861227 C87.876146,12.5524087 88.1520268,12.3852661 88.4116793,12.184695 C88.6713318,11.9674096 88.9147561,11.7166957 89.1094954,11.415839 C89.3042348,11.1149824 89.4665176,10.7806972 89.5801156,10.3962692 C89.6937136,10.0118413 89.7586267,9.57727052 89.7586267,9.09255701 C89.7910833,8.60784349 89.7261701,8.17327275 89.6125722,7.78884479" id="Path"></path>
                    <path d="M25.397261,1.58785462 L25.397261,1.58785462 C24.9266409,1.10314111 24.358651,0.718713146 23.7095197,0.434570739 C23.0603885,0.167142592 22.3463441,0.0167142592 21.5836148,0.0167142592 L18.6462958,0.0167142592 C17.8835666,0.0167142592 17.1695222,0.150428333 16.5203909,0.434570739 C15.8712596,0.701998887 15.3032697,1.10314111 14.8164213,1.58785462 C14.3458011,2.07256814 13.9563224,2.65756721 13.6966699,3.34285184 C13.4207891,4.01142221 13.2909628,4.76356387 13.2909628,5.54913406 L13.2909628,7.55484516 C13.2909628,8.34041534 13.4207891,9.09255701 13.6966699,9.76112738 C13.9725506,10.4296977 14.3458011,11.0146968 14.8164213,11.5161246 C15.2870415,12.0008381 15.8712596,12.3852661 16.5203909,12.6694085 C17.1695222,12.9368366 17.8835666,13.0705507 18.6462958,13.0705507 L21.5836148,13.0705507 C22.3463441,13.0705507 23.0603885,12.9368366 23.7095197,12.6694085 C24.358651,12.4019803 24.9266409,12.0175524 25.397261,11.5161246 C25.8678812,11.0314111 26.25736,10.446412 26.5170125,9.76112738 C26.776665,9.09255701 26.9227195,8.34041534 26.9227195,7.55484516 L26.9227195,5.54913406 C26.9227195,4.76356387 26.7928933,4.02813647 26.5170125,3.34285184 C26.2411317,2.65756721 25.8678812,2.07256814 25.397261,1.58785462 M18.6462958,2.94170962 L21.5836148,2.94170962 C21.9568653,2.94170962 22.2976592,3.00856666 22.6059966,3.12556647 C22.9143339,3.24256629 23.1739864,3.42642314 23.3849541,3.64370851 C23.5959218,3.86099388 23.7744329,4.12842202 23.8880308,4.44599295 C24.0016288,4.76356387 24.0665419,5.13127758 24.0665419,5.51570554 L24.0665419,7.52141664 C24.0665419,7.92255886 24.0016288,8.27355831 23.8880308,8.59112923 C23.7744329,8.90870016 23.5959218,9.1761283 23.3849541,9.39341367 C23.1739864,9.61069904 22.8981056,9.79455589 22.6059966,9.91155571 C22.2976592,10.0285555 21.9568653,10.0954126 21.5673865,10.0954126 L18.6462958,10.0954126 C18.2730453,10.0954126 17.9160231,10.0285555 17.6076858,9.91155571 C17.2993484,9.79455589 17.0396959,9.61069904 16.8287282,9.39341367 C16.6177606,9.1761283 16.4392495,8.90870016 16.3256515,8.59112923 C16.2120535,8.27355831 16.1471404,7.9058446 16.1471404,7.52141664 L16.1471404,5.51570554 C16.1471404,5.11456332 16.2120535,4.76356387 16.3256515,4.44599295 C16.4392495,4.12842202 16.6177606,3.86099388 16.8287282,3.64370851 C17.0396959,3.42642314 17.3155767,3.24256629 17.6076858,3.12556647 C17.9160231,3.00856666 18.256817,2.94170962 18.6462958,2.94170962" id="Shape"></path>
                    <path d="M40.7979005,1.58785462 C40.3272803,1.10314111 39.7592904,0.718713146 39.1101592,0.434570739 C38.4610279,0.167142592 37.7469835,0.0167142592 36.9842543,0.0167142592 L34.0469352,0.0167142592 C33.284206,0.0167142592 32.5701616,0.150428333 31.9210303,0.434570739 C31.2718991,0.701998887 30.7039092,1.10314111 30.2170607,1.58785462 C29.7464406,2.07256814 29.3569618,2.65756721 29.0973093,3.34285184 C28.8214285,4.01142221 28.6916022,4.76356387 28.6916022,5.54913406 L28.6916022,7.55484516 C28.6916022,8.3571296 28.8214285,9.09255701 29.0973093,9.76112738 C29.3731901,10.4296977 29.7464406,11.0146968 30.2170607,11.5161246 C30.6876809,12.0008381 31.2718991,12.3852661 31.9210303,12.6694085 C32.5701616,12.9368366 33.284206,13.0705507 34.0469352,13.0705507 L36.9842543,13.0705507 C37.7469835,13.0705507 38.4610279,12.9368366 39.1101592,12.6694085 C39.7592904,12.4019803 40.3272803,12.0175524 40.7979005,11.5161246 C41.2685207,11.0314111 41.6579994,10.446412 41.9176519,9.76112738 C42.1773044,9.09255701 42.323359,8.34041534 42.323359,7.55484516 L42.323359,5.54913406 C42.323359,4.76356387 42.1935327,4.02813647 41.9176519,3.34285184 C41.6417711,2.65756721 41.2685207,2.07256814 40.7979005,1.58785462 M34.030707,2.94170962 L36.968026,2.94170962 C37.3412765,2.94170962 37.6820704,3.00856666 37.9904077,3.12556647 C38.2987451,3.24256629 38.5583976,3.42642314 38.7693653,3.64370851 C38.9803329,3.86099388 39.158844,4.12842202 39.272442,4.44599295 C39.38604,4.76356387 39.4509531,5.13127758 39.4509531,5.51570554 L39.4509531,7.52141664 C39.4509531,7.92255886 39.38604,8.27355831 39.272442,8.59112923 C39.158844,8.90870016 38.9803329,9.1761283 38.7693653,9.39341367 C38.5583976,9.61069904 38.2825168,9.79455589 37.9904077,9.91155571 C37.6820704,10.0285555 37.3412765,10.0954126 36.9517977,10.0954126 L34.030707,10.0954126 C33.6574565,10.0954126 33.3004343,10.0285555 32.9920969,9.91155571 C32.6837596,9.79455589 32.4241071,9.61069904 32.2131394,9.39341367 C32.0021717,9.1761283 31.8236606,8.90870016 31.7100627,8.59112923 C31.5964647,8.27355831 31.5315516,7.9058446 31.5315516,7.52141664 L31.5315516,5.51570554 C31.5315516,5.11456332 31.5964647,4.76356387 31.7100627,4.44599295 C31.8236606,4.12842202 32.0021717,3.86099388 32.2131394,3.64370851 C32.4241071,3.42642314 32.6999879,3.24256629 32.9920969,3.12556647 C33.3166626,3.00856666 33.6574565,2.94170962 34.030707,2.94170962" id="Shape"></path>
                    <path d="M55.338441,1.58785462 L55.338441,1.58785462 C54.8678208,1.10314111 54.2998309,0.718713146 53.6344714,0.434570739 C52.9853401,0.167142592 52.2712957,0.0167142592 51.5085665,0.0167142592 L45.6501567,0.0167142592 C45.4554174,0.0167142592 45.260678,0.0501427776 45.0821669,0.133714074 C44.9036558,0.20057111 44.7576012,0.317570925 44.627775,0.451284999 C44.4979487,0.584999072 44.400579,0.735427405 44.3356659,0.919284256 C44.2707528,1.10314111 44.2220679,1.28699796 44.2220679,1.48756907 L44.2220679,11.5829816 C44.2220679,11.7835527 44.2545245,11.9841238 44.3356659,12.1679807 C44.400579,12.3518376 44.514177,12.5022659 44.6440033,12.63598 C44.7738295,12.769694 44.9198841,12.8699796 45.0983952,12.9535509 C45.2769063,13.0204079 45.4554174,13.0705507 45.666385,13.0705507 L51.541023,13.0705507 C52.3037523,13.0705507 53.0177967,12.9368366 53.666928,12.6526942 C54.3160592,12.3852661 54.8840491,11.9841238 55.3708975,11.4994103 C55.8415177,11.0146968 56.2309965,10.4296977 56.490649,9.76112738 C56.7665298,9.09255701 56.896356,8.34041534 56.896356,7.55484516 L56.896356,5.5324198 C56.896356,4.74684961 56.7665298,4.01142221 56.490649,3.32613758 C56.1985399,2.65756721 55.8252894,2.07256814 55.338441,1.58785462 M51.5247948,10.1288411 L47.0620173,10.1288411 L47.0620173,2.94170962 L51.5247948,2.94170962 C51.8980452,2.94170962 52.2550674,3.00856666 52.5634048,3.12556647 C52.8717421,3.24256629 53.1313947,3.42642314 53.3423623,3.64370851 C53.55333,3.86099388 53.7318411,4.12842202 53.8454391,4.44599295 C53.959037,4.76356387 54.0239502,5.13127758 54.0239502,5.51570554 L54.0239502,7.5381309 C54.0239502,7.93927312 53.959037,8.29027257 53.8454391,8.60784349 C53.7318411,8.92541442 53.55333,9.19284256 53.3423623,9.41012793 C53.1313947,9.6274133 52.8555139,9.81127015 52.5634048,9.92826997 C52.2550674,10.061984 51.8980452,10.1288411 51.5247948,10.1288411" id="Shape"></path>
                    <rect id="Rectangle" x="58.795065" y="0.0167142592" width="2.83994932" height="13.0371222"></rect>
                    <path d="M66.8118362,0.434570739 C66.162705,0.701998887 65.5947151,1.10314111 65.1078666,1.58785462 C64.6372465,2.07256814 64.2477677,2.65756721 63.9881152,3.34285184 C63.7122344,4.01142221 63.5824081,4.76356387 63.5824081,5.54913406 L63.5824081,7.55484516 C63.5824081,8.34041534 63.7122344,9.07584275 63.9881152,9.76112738 C64.263996,10.4296977 64.6372465,11.0314111 65.1078666,11.5161246 C65.5784868,12.0008381 66.1464767,12.3852661 66.8118362,12.6694085 C67.4609675,12.9368366 68.1750119,13.087265 68.9377411,13.087265 L75.1369448,13.087265 L75.1369448,10.1622696 L68.9377411,10.1622696 C68.5644907,10.1622696 68.2074685,10.0954126 67.8991311,9.97841275 C67.5907938,9.86141293 67.3311412,9.67755608 67.1201736,9.46027071 C66.9092059,9.24298534 66.7306948,8.97555719 66.6170968,8.65798627 C66.5034989,8.34041534 66.4385857,7.97270164 66.4385857,7.58827368 L66.4385857,5.58256257 C66.4385857,5.18142035 66.5034989,4.83042091 66.6170968,4.51284999 C66.7306948,4.19527906 66.9092059,3.92785091 67.1201736,3.71056554 C67.3311412,3.49328017 67.607022,3.30942332 67.8991311,3.19242351 C68.2074685,3.07542369 68.5482624,3.00856666 68.9377411,3.00856666 L75.1369448,3.00856666 L75.1369448,0.083571296 L68.9377411,0.083571296 C68.1750119,0.0167142592 67.4609675,0.167142592 66.8118362,0.434570739" id="Path"></path>
                    <path d="M2.66143822,10.4631263 L2.66143822,10.4631263 C2.56406853,10.3628407 2.43424227,10.2792694 2.28818774,10.2124124 C2.1421332,10.1455553 1.99607866,10.1288411 1.81756756,10.1288411 L1.16843629,10.1288411 C1.00615347,10.1288411 0.843870654,10.1622696 0.697816118,10.2124124 C0.551761582,10.2792694 0.438163609,10.3628407 0.324565636,10.4631263 C0.227195945,10.5634118 0.146054536,10.6971259 0.0811414091,10.8475542 C0.0162282818,10.9979826 1.42108547e-14,11.1484109 1.42108547e-14,11.3322677 L1.42108547e-14,11.8504098 C1.42108547e-14,12.0175524 0.0324565636,12.184695 0.0811414091,12.3351233 C0.146054536,12.4855516 0.227195945,12.6025514 0.324565636,12.7195513 C0.421935327,12.8198368 0.551761582,12.9034081 0.697816118,12.9702651 C0.843870654,13.0204079 0.989925191,13.0538364 1.16843629,13.0538364 L1.81756756,13.0538364 C1.97985038,13.0538364 2.1421332,13.0204079 2.28818774,12.9702651 C2.43424227,12.9034081 2.54784024,12.8198368 2.66143822,12.7195513 C2.75880791,12.6192657 2.83994932,12.4855516 2.90486244,12.3351233 C2.96977557,12.184695 2.98600385,12.0175524 2.98600385,11.8504098 L2.98600385,11.3322677 C2.98600385,11.1651251 2.95354729,10.9979826 2.90486244,10.8475542 C2.8561776,10.7138402 2.77503619,10.5801261 2.66143822,10.4631263" id="Path"></path>
                    <path d="M91.8520751,0.802284442 L92.5498912,0.802284442 C92.7770871,0.802284442 92.9231417,0.969427034 92.9231417,1.16999814 C92.9231417,1.32042648 92.8582285,1.43742629 92.712174,1.50428333 L92.712174,1.50428333 C92.8582285,1.53771185 92.8906851,1.68814018 92.9069134,1.82185425 C92.9069134,1.90542555 92.9069134,2.05585388 92.9555982,2.13942518 L92.6797174,2.13942518 C92.6472609,2.05585388 92.6472609,1.92213981 92.6310326,1.82185425 C92.6148043,1.68814018 92.5661195,1.62128314 92.4200649,1.62128314 L92.1441841,1.62128314 L92.1441841,2.13942518 L91.8683033,2.13942518 L91.8520751,0.802284442 L91.8520751,0.802284442 Z M92.1441841,1.40399777 L92.4525215,1.40399777 C92.5823477,1.40399777 92.6472609,1.353855 92.6472609,1.22014092 C92.6472609,1.08642685 92.5823477,1.03628407 92.4525215,1.03628407 L92.1441841,1.03628407 L92.1441841,1.40399777 Z" id="Shape"></path>
                    <path d="M92.3551518,2.94170962 C91.5761943,2.94170962 90.927063,2.28985351 90.927063,1.47085481 C90.927063,0.668570368 91.559966,0 92.3551518,0 C93.1341093,0 93.7832406,0.651856109 93.7832406,1.47085481 C93.7832406,2.28985351 93.1503376,2.94170962 92.3551518,2.94170962 M92.3551518,0.334285184 C91.7384771,0.334285184 91.2354004,0.852427219 91.2354004,1.48756907 C91.2354004,2.12271092 91.7384771,2.64085295 92.3551518,2.64085295 C92.9718265,2.64085295 93.4749032,2.12271092 93.4749032,1.48756907 C93.4749032,0.852427219 92.9718265,0.334285184 92.3551518,0.334285184" id="Shape"></path>
                    <path d="M2.92109073,3.8108511 C2.92109073,3.34285184 3.27811293,2.97513814 3.73250482,2.97513814 L11.5383084,2.97513814 L11.5383084,0.0167142592 L3.79741794,0.0167142592 C1.72019787,0.0167142592 0.0486848454,1.75499722 0.0486848454,3.87770814 L0.0486848454,4.37913591 L0.0486848454,5.16470609 C0.0486848454,7.30413127 1.72019787,9.02569997 3.79741794,9.02569997 L7.88694496,9.02569997 L7.88694496,6.06727609 L3.73250482,6.06727609 C3.27811293,6.06727609 2.92109073,5.69956239 2.92109073,5.23156313 L2.92109073,4.37913591 L2.92109073,3.8108511 Z" id="Path"></path>
                </g>
                <path d="M12.1225265,13.53855 C11.7330478,13.7725496 11.229971,13.8895494 10.597068,13.8895494 C10.0453064,13.8895494 9.60714283,13.7224068 9.2825772,13.4048359 C8.95801156,13.087265 8.79572874,12.5524087 8.79572874,11.8336955 C8.2115106,12.5524087 7.52992276,13.0705507 6.76719352,13.4048359 C5.98823599,13.7224068 5.16059362,13.8895494 4.26803812,13.8895494 C3.68381997,13.8895494 3.13205839,13.8226924 2.61275337,13.6889783 C2.09344835,13.5552642 1.63905646,13.3379788 1.2495777,13.0371222 C0.860098936,12.7362655 0.567989863,12.3518376 0.340793918,11.8838383 C0.113597973,11.415839 0,10.8475542 0,10.1789839 C0,9.42684219 0.129826255,8.8084146 0.373250482,8.32370108 C0.616674709,7.83898757 0.957468627,7.45455961 1.36317567,7.1704172 C1.76888272,6.88627479 2.23950289,6.65227516 2.75880791,6.48513257 C3.27811293,6.31798998 3.81364623,6.18427591 4.36540781,6.08399035 C4.94962595,5.96699054 5.50138753,5.86670498 6.02069255,5.8165622 C6.53999757,5.74970517 7.01061774,5.66613387 7.40009651,5.56584832 C7.80580355,5.4488485 8.11414091,5.29842017 8.34133685,5.0811348 C8.5685328,4.86384943 8.68213077,4.56299276 8.68213077,4.14513628 C8.68213077,3.66042277 8.60098936,3.2759948 8.42247826,2.9918524 C8.24396716,2.70770999 8.01677122,2.47371036 7.75711871,2.32328203 C7.48123792,2.1728537 7.17290056,2.07256814 6.83210664,2.02242536 C6.49131273,1.97228259 6.15051881,1.93885407 5.82595317,1.93885407 C4.93339767,1.93885407 4.18689671,2.12271092 3.58645028,2.4569961 C2.98600385,2.80799555 2.66143822,3.47656591 2.61275337,4.44599295 L0.503076736,4.44599295 C0.5355333,3.62699425 0.697816118,2.92499536 1.00615347,2.37342481 C1.31449083,1.82185425 1.70396959,1.353855 2.20704633,1.00285555 C2.71012306,0.651856109 3.27811293,0.401142221 3.9272442,0.250713888 C4.57637547,0.100285555 5.25796331,0.0167142592 5.97200771,0.0167142592 C6.55622585,0.0167142592 7.12421572,0.0668570368 7.70843386,0.150428333 C8.27642372,0.233999629 8.79572874,0.41785648 9.26634892,0.668570368 C9.73696909,0.935998515 10.1102196,1.30371222 10.3861004,1.78842573 C10.6619812,2.27313925 10.8080357,2.89156684 10.8080357,3.66042277 L10.8080357,10.4798405 C10.8080357,10.9979826 10.8404923,11.3656963 10.8891771,11.6164101 C10.9540902,11.8504098 11.1488296,11.9674096 11.4733952,11.9674096 C11.6681346,11.9674096 11.8953306,11.9172668 12.1225265,11.8336955 L12.1225265,13.53855 L12.1225265,13.53855 Z M8.68213077,6.73584646 C8.48739139,6.88627479 8.22773888,7.00327461 7.93562981,7.0868459 C7.64352073,7.1704172 7.3189551,7.23727424 6.99438946,7.30413127 C6.66982383,7.37098831 6.31280163,7.42113109 5.93955114,7.45455961 C5.56630066,7.50470238 5.20927846,7.55484516 4.85225626,7.6217022 C4.51146234,7.68855923 4.17066843,7.77213053 3.86233107,7.87241609 C3.55399372,7.97270164 3.27811293,8.12312997 3.0346887,8.29027257 C2.80749275,8.47412942 2.61275337,8.69141479 2.46669884,8.97555719 C2.3206443,9.24298534 2.25573117,9.59398478 2.25573117,9.995127 C2.25573117,10.3461264 2.3206443,10.6636974 2.46669884,10.897697 C2.61275337,11.1484109 2.79126447,11.348982 3.01846042,11.4994103 C3.24565636,11.6498387 3.50530887,11.7668385 3.79741794,11.8336955 C4.08952702,11.9005526 4.41409265,11.9339811 4.73865829,11.9339811 C5.43647441,11.9339811 6.03692083,11.8336955 6.53999757,11.6331244 C7.04307431,11.4325533 7.44878135,11.1818394 7.75711871,10.8809827 C8.06545606,10.5801261 8.30888029,10.2625552 8.45493482,9.91155571 C8.60098936,9.56055627 8.68213077,9.22627108 8.68213077,8.92541442 L8.68213077,6.73584646 Z" id="Shape"></path>
                <g transform="translate(116.080900, 0.000000)">
                    <path d="M9.42863173,4.57970702 C9.26634892,3.74399406 8.90932672,3.09213795 8.37379342,2.6241387 C7.83826012,2.15613944 7.12421572,1.93885407 6.2478885,1.93885407 C5.48515925,1.93885407 4.85225626,2.0892824 4.33295124,2.37342481 C3.81364623,2.65756721 3.40793918,3.04199518 3.09960183,3.52670869 C2.79126447,4.01142221 2.56406853,4.56299276 2.43424227,5.18142035 C2.30441602,5.79984794 2.23950289,6.45170405 2.23950289,7.12027442 C2.23950289,7.73870201 2.30441602,8.34041534 2.45047055,8.90870016 C2.59652509,9.49369923 2.80749275,10.0118413 3.11583011,10.4631263 C3.40793918,10.9144113 3.79741794,11.282125 4.26803812,11.5495531 C4.73865829,11.8169813 5.32287643,11.9674096 6.00446427,11.9674096 C7.02684603,11.9674096 7.8544884,11.6832672 8.43870654,11.1149824 C9.03915297,10.5466976 9.39617517,9.74441312 9.54222971,8.74155756 L11.7168195,8.74155756 C11.4896235,10.3628407 10.8891771,11.6331244 9.91548019,12.5356944 C8.95801156,13.4382644 7.65974902,13.8895494 6.03692083,13.8895494 C5.06322393,13.8895494 4.18689671,13.7224068 3.44039574,13.3881216 C2.6776665,13.0538364 2.06099179,12.5858372 1.54168677,11.9841238 C1.03861004,11.3824105 0.649131273,10.6636974 0.389478764,9.84469867 C0.129826255,9.00898571 0,8.10641571 0,7.12027442 C0,6.13413313 0.129826255,5.19813461 0.373250482,4.32899313 C0.616674709,3.45985166 1.00615347,2.70770999 1.50923021,2.07256814 C2.01230694,1.43742629 2.64520994,0.919284256 3.40793918,0.551570554 C4.17066843,0.183856851 5.06322393,0 6.08560568,0 C6.81587836,0 7.4974662,0.083571296 8.14659747,0.267428147 C8.77950046,0.451284999 9.34749032,0.718713146 9.85056706,1.10314111 C10.3536438,1.48756907 10.7593508,1.95556833 11.0514599,2.52385314 C11.3597973,3.09213795 11.5545367,3.77742258 11.6356781,4.56299276 L9.42863173,4.56299276 L9.42863173,4.57970702 Z" id="Path"></path>
                    <path d="M13.3558759,6.96984609 C13.3558759,6.00041905 13.4857022,5.0811348 13.761583,4.24542184 C14.0212355,3.39299462 14.4269425,2.65756721 14.9624758,2.03913962 C15.4980091,1.42071203 16.1471404,0.919284256 16.9260979,0.568284813 C17.7050555,0.21728537 18.597611,0.0334285184 19.636221,0.0334285184 C20.6423745,0.0334285184 21.5511582,0.21728537 22.3301158,0.568284813 C23.1090733,0.919284256 23.7744329,1.42071203 24.2937379,2.03913962 C24.8292712,2.65756721 25.2187499,3.39299462 25.4946307,4.24542184 C25.7542832,5.09784906 25.9003378,6.00041905 25.9003378,6.96984609 C25.9003378,7.93927312 25.7705115,8.85855738 25.4946307,9.69427034 C25.2349782,10.5299833 24.8292712,11.2654107 24.2937379,11.8838383 C23.7582046,12.5022659 23.1090733,13.0036937 22.3301158,13.3546931 C21.5511582,13.7056925 20.6586027,13.8895494 19.636221,13.8895494 C18.6138392,13.8895494 17.7050555,13.7056925 16.9260979,13.3546931 C16.1471404,13.0036937 15.4980091,12.5022659 14.9624758,11.8838383 C14.4269425,11.2654107 14.0374638,10.5299833 13.761583,9.69427034 C13.5019305,8.84184312 13.3558759,7.93927312 13.3558759,6.96984609 Z M15.6116071,6.96984609 C15.6116071,7.77213053 15.7089768,8.49084368 15.9199445,9.10927127 C16.1309121,9.72769886 16.4067929,10.2625552 16.7800434,10.6804116 C17.1532939,11.0982681 17.5752292,11.415839 18.0620777,11.6498387 C18.5489261,11.867124 19.0682311,11.9841238 19.6199927,11.9841238 C20.1717543,11.9841238 20.6910593,11.867124 21.1779078,11.6498387 C21.6647562,11.4325533 22.1029198,11.1149824 22.459942,10.6804116 C22.8169642,10.2625552 23.1090733,9.74441312 23.320041,9.10927127 C23.5310086,8.49084368 23.6283783,7.77213053 23.6283783,6.96984609 C23.6283783,6.16756165 23.5310086,5.4488485 23.320041,4.83042091 C23.1090733,4.21199332 22.8331925,3.67713703 22.459942,3.25928054 C22.0866915,2.82470981 21.6647562,2.50713888 21.1779078,2.28985351 C20.6910593,2.07256814 20.1717543,1.95556833 19.6199927,1.95556833 C19.0682311,1.95556833 18.5489261,2.07256814 18.0620777,2.28985351 C17.5752292,2.50713888 17.1370656,2.84142406 16.7800434,3.25928054 C16.4067929,3.69385128 16.1309121,4.21199332 15.9199445,4.83042091 C15.7089768,5.4488485 15.6116071,6.16756165 15.6116071,6.96984609 Z" id="Shape"></path>
                    <path d="M28.3508083,0.317570925 L30.346887,0.317570925 L30.346887,2.27313925 L30.3955718,2.27313925 C31.3530405,0.768855923 32.7486727,0.0167142592 34.550012,0.0167142592 C35.3451978,0.0167142592 36.0754705,0.183856851 36.7246017,0.534856295 C37.373733,0.869141479 37.8281249,1.45414055 38.0877774,2.27313925 C38.525941,1.55442611 39.0939309,1.00285555 39.8079753,0.601713331 C40.5220197,0.20057111 41.3009772,0.0167142592 42.1286196,0.0167142592 C42.7777509,0.0167142592 43.361969,0.083571296 43.881274,0.233999629 C44.400579,0.384427962 44.8549709,0.601713331 45.2282214,0.919284256 C45.6014719,1.22014092 45.893581,1.62128314 46.1045486,2.10599666 C46.3155163,2.59071018 46.412886,3.17570925 46.412886,3.86099388 L46.412886,13.5886927 L44.3032093,13.5886927 L44.3032093,4.89727795 C44.3032093,4.47942147 44.2707528,4.09499351 44.2058397,3.74399406 C44.1409265,3.39299462 44.0111003,3.07542369 43.8325892,2.80799555 C43.6540781,2.5405674 43.3944256,2.33999629 43.0698599,2.1728537 C42.7452943,2.02242536 42.323359,1.93885407 41.804054,1.93885407 C40.7816722,1.93885407 39.9540298,2.23971073 39.3535834,2.85813832 C38.753137,3.47656591 38.4447996,4.29556462 38.4447996,5.31513443 L38.4447996,13.5719785 L36.335123,13.5719785 L36.335123,4.88056369 C36.335123,4.44599295 36.3026664,4.06156499 36.221525,3.69385128 C36.1403836,3.34285184 36.0105573,3.02528092 35.8320462,2.75785277 C35.6535351,2.49042462 35.3938826,2.28985351 35.0855453,2.13942518 C34.7772079,1.98899685 34.3715009,1.92213981 33.917109,1.92213981 C33.284206,1.92213981 32.7486727,2.05585388 32.3267374,2.30656777 C31.8885738,2.55728166 31.5477798,2.87485258 31.2718991,3.22585203 C30.9960183,3.57685147 30.8012789,3.96127943 30.6714526,4.34570739 C30.5416264,4.73013535 30.4767132,5.04770628 30.4767132,5.31513443 L30.4767132,13.5719785 L28.3670366,13.5719785 L28.3670366,0.317570925 L28.3508083,0.317570925 Z" id="Path"></path>
                    <path d="M49.6747706,0.317570925 L51.7844473,0.317570925 L51.7844473,2.10599666 L51.8331321,2.10599666 C52.173926,1.37056925 52.7256876,0.83571296 53.4721886,0.501427776 C54.2186895,0.167142592 55.0463319,0 55.9388874,0 C56.9288126,0 57.8051398,0.183856851 58.5354125,0.568284813 C59.2819135,0.952712775 59.8823599,1.45414055 60.3854366,2.0892824 C60.8722851,2.72442425 61.2455356,3.47656591 61.4889598,4.31227887 C61.732384,5.14799184 61.8622103,6.03384757 61.8622103,6.98656035 C61.8622103,7.92255886 61.7486123,8.82512886 61.5051881,9.66084182 C61.2617638,10.4965548 60.9047416,11.2319822 60.4016649,11.8504098 C59.9148165,12.4688374 59.2981417,12.9702651 58.5516408,13.3379788 C57.8051398,13.7056925 56.9450409,13.8895494 55.971344,13.8895494 C55.6467783,13.8895494 55.2897561,13.8561209 54.9002774,13.7892638 C54.5107986,13.7224068 54.1375481,13.605407 53.7480694,13.4382644 C53.3585906,13.2711218 53.0015684,13.0705507 52.6607745,12.8031226 C52.3199806,12.5356944 52.0278715,12.2014092 51.8006755,11.8169813 L51.8006755,11.8169813 L51.8006755,18.6698275 L49.6909989,18.6698275 L49.6909989,0.317570925 L49.6747706,0.317570925 Z M59.6389357,6.83613201 C59.6389357,6.21770442 59.5577943,5.61599109 59.3955114,5.03099202 C59.2332286,4.44599295 58.9898044,3.91113665 58.6652388,3.45985166 C58.3406731,2.9918524 57.9187378,2.6241387 57.4156611,2.35671055 C56.9125843,2.0892824 56.3121379,1.93885407 55.6305501,1.93885407 C54.9165057,1.93885407 54.3160592,2.0892824 53.8129825,2.37342481 C53.3099058,2.65756721 52.9041987,3.04199518 52.5958614,3.50999443 C52.287524,3.97799369 52.0440998,4.51284999 51.9142735,5.11456332 C51.768219,5.71627665 51.7033059,6.31798998 51.7033059,6.93641757 C51.7033059,7.58827368 51.7844473,8.22341553 51.9305018,8.82512886 C52.0765563,9.42684219 52.3199806,9.96169849 52.6445462,10.4296977 C52.9691118,10.897697 53.3910472,11.2654107 53.9103522,11.5495531 C54.4296572,11.8336955 55.0463319,11.9674096 55.7766046,11.9674096 C56.490649,11.9674096 57.0910954,11.8169813 57.5941722,11.5328389 C58.0972489,11.2486964 58.4867277,10.8642685 58.795065,10.379555 C59.0871741,9.89484145 59.31437,9.35998515 59.4441963,8.74155756 C59.5740225,8.12312997 59.6389357,7.48798812 59.6389357,6.83613201 Z" id="Shape"></path>
                    <path d="M75.7860761,13.53855 C75.3965973,13.7725496 74.8935206,13.8895494 74.2606176,13.8895494 C73.708856,13.8895494 73.2706924,13.7224068 72.9461268,13.4048359 C72.6215611,13.087265 72.4592783,12.5524087 72.4592783,11.8336955 C71.8750602,12.5524087 71.1934723,13.0705507 70.4307431,13.4048359 C69.6517855,13.7224068 68.8241432,13.8895494 67.9315877,13.8895494 C67.3473695,13.8895494 66.7956079,13.8226924 66.2763029,13.6889783 C65.7569979,13.5552642 65.302606,13.3379788 64.9131273,13.0371222 C64.5236485,12.7362655 64.2315394,12.3518376 64.0043435,11.8838383 C63.7771475,11.415839 63.6635496,10.8475542 63.6635496,10.1789839 C63.6635496,9.42684219 63.7933758,8.8084146 64.0368,8.32370108 C64.2802243,7.83898757 64.6210182,7.45455961 65.0267252,7.1704172 C65.4324323,6.88627479 65.9030524,6.65227516 66.4223575,6.48513257 C66.9416625,6.31798998 67.4771958,6.18427591 68.0289574,6.08399035 C68.6131755,5.96699054 69.1649371,5.86670498 69.6842421,5.8165622 C70.2035471,5.74970517 70.6741673,5.66613387 71.0636461,5.56584832 C71.4693531,5.4488485 71.7776905,5.29842017 72.0048864,5.0811348 C72.2320824,4.86384943 72.3456803,4.56299276 72.3456803,4.14513628 C72.3456803,3.66042277 72.2645389,3.2759948 72.0860278,2.9918524 C71.9075167,2.70770999 71.6803208,2.47371036 71.4206683,2.32328203 C71.1447875,2.1728537 70.8364501,2.07256814 70.4956562,2.02242536 C70.1548623,1.97228259 69.8140684,1.93885407 69.4895027,1.93885407 C68.5969472,1.93885407 67.8504463,2.12271092 67.2499998,2.4569961 C66.6495534,2.80799555 66.3249878,3.47656591 66.2763029,4.44599295 L64.1666263,4.44599295 C64.1990829,3.62699425 64.3613657,2.92499536 64.669703,2.37342481 C64.9618121,1.80513999 65.3675191,1.353855 65.8705959,1.00285555 C66.3736726,0.651856109 66.9416625,0.401142221 67.5907938,0.250713888 C68.239925,0.100285555 68.9215129,0.0167142592 69.6355573,0.0167142592 C70.2197754,0.0167142592 70.7877653,0.0668570368 71.3719834,0.150428333 C71.9399733,0.233999629 72.4592783,0.41785648 72.9298985,0.668570368 C73.4005186,0.935998515 73.7737691,1.30371222 74.0496499,1.78842573 C74.3255307,2.27313925 74.4715852,2.89156684 74.4715852,3.66042277 L74.4715852,10.4798405 C74.4715852,10.9979826 74.5040418,11.3656963 74.5527266,11.6164101 C74.6176398,11.8504098 74.8123792,11.9674096 75.1369448,11.9674096 C75.3316842,11.9674096 75.5588801,11.9172668 75.7860761,11.8336955 L75.7860761,13.53855 L75.7860761,13.53855 Z M72.3456803,6.73584646 C72.1509409,6.88627479 71.8912884,7.00327461 71.5991794,7.0868459 C71.3070703,7.1704172 70.9825047,7.23727424 70.657939,7.30413127 C70.3333734,7.37098831 69.9763512,7.42113109 69.6031007,7.45455961 C69.2298502,7.50470238 68.872828,7.55484516 68.5158058,7.6217022 C68.1750119,7.68855923 67.834218,7.77213053 67.5258806,7.87241609 C67.2175433,7.97270164 66.9416625,8.12312997 66.6982383,8.29027257 C66.4710423,8.47412942 66.2763029,8.69141479 66.1302484,8.97555719 C65.9841939,9.24298534 65.9192807,9.59398478 65.9192807,9.995127 C65.9192807,10.3461264 65.9841939,10.6636974 66.1302484,10.897697 C66.2763029,11.1484109 66.454814,11.348982 66.68201,11.4994103 C66.9092059,11.6498387 67.1688584,11.7668385 67.4609675,11.8336955 C67.7530766,11.9005526 68.0776422,11.9339811 68.4022078,11.9339811 C69.100024,11.9339811 69.7004704,11.8336955 70.2035471,11.6331244 C70.7066239,11.4325533 71.1123309,11.1818394 71.4206683,10.8809827 C71.7290056,10.5801261 71.9724298,10.2625552 72.1184844,9.91155571 C72.2645389,9.56055627 72.3456803,9.22627108 72.3456803,8.92541442 L72.3456803,6.73584646 Z" id="Shape"></path>
                    <path d="M77.7496982,0.317570925 L79.7457768,0.317570925 L79.7457768,2.42356758 L79.7944617,2.42356758 C80.2488536,1.60456888 80.8168434,1.00285555 81.5308878,0.601713331 C82.2287039,0.20057111 83.0563463,0.0167142592 83.9813584,0.0167142592 C84.825229,0.0167142592 85.5392734,0.133714074 86.091035,0.367713703 C86.6590249,0.601713331 87.1134168,0.935998515 87.4542107,1.37056925 C87.7950046,1.80513999 88.0546571,2.30656777 88.1844834,2.89156684 C88.3305379,3.47656591 88.395451,4.12842202 88.395451,4.84713517 L88.395451,13.5719785 L86.2857744,13.5719785 L86.2857744,4.59642128 C86.2857744,3.77742258 86.0585785,3.12556647 85.5879583,2.64085295 C85.1173381,2.15613944 84.4844351,1.92213981 83.673021,1.92213981 C83.0238898,1.92213981 82.4721282,2.02242536 81.9852797,2.22299647 C81.5146595,2.42356758 81.1251808,2.72442425 80.8006151,3.09213795 C80.4922778,3.47656591 80.2488536,3.91113665 80.0865707,4.41256443 C79.9242879,4.91399221 79.8431465,5.46556276 79.8431465,6.06727609 L79.8431465,13.5552642 L77.7334699,13.5552642 L77.7334699,0.317570925 L77.7496982,0.317570925 Z" id="Path"></path>
                    <path d="M96.6556465,15.3604042 C96.4122223,16.0122603 96.168798,16.5638309 95.9253738,16.9984016 C95.6819496,17.4496866 95.4222971,17.8006861 95.1464163,18.0848285 C94.8705355,18.3689709 94.5459698,18.569542 94.1727194,18.7032561 C93.7994689,18.8369701 93.3937618,18.9038272 92.9231417,18.9038272 C92.6797174,18.9038272 92.4200649,18.8871129 92.1766407,18.8536844 C91.9332165,18.8202559 91.6897922,18.7533988 91.446368,18.6698275 L91.446368,16.6641164 C91.6411074,16.7309735 91.8520751,16.7978305 92.0630427,16.8646875 C92.2740104,16.9315446 92.4849781,16.9649731 92.6959457,16.9649731 C93.1341093,16.9649731 93.4749032,16.8646875 93.7345558,16.6641164 C93.9942083,16.4635453 94.2376325,16.1626887 94.4323719,15.7615464 L95.3086991,13.5051214 L90.1967903,0.317570925 L92.5823477,0.317570925 L96.3473091,11.1651251 L96.395994,11.1651251 L100.014901,0.317570925 L102.254404,0.317570925 L96.6556465,15.3604042 Z" id="Path"></path>
                </g>
            </g>
        </g>
    </g>
</svg>